STARTFONT 2.1
FONT -Cronyx-Times-Medium-R-Normal--18-180-75-75-P-94-KOI8-R
SIZE 18 72 72
FONTBOUNDINGBOX 15 20 0 -4
STARTPROPERTIES 21
DEFAULT_CHAR 32
FONT_ASCENT 17
FONT_DESCENT 4
SPACING "P"
FONTNAME_REGISTRY ""
FOUNDRY "Cronyx"
FAMILY_NAME "Times"
WEIGHT_NAME "Medium"
SLANT "R"
SETWIDTH_NAME "Normal"
ADD_STYLE_NAME ""
AVERAGE_WIDTH 94
CHARSET_REGISTRY "KOI8"
CHARSET_ENCODING "R"
PIXEL_SIZE 18
POINT_SIZE 180
RESOLUTION_X 75
RESOLUTION_Y 75
COPYRIGHT "Copyright (C) 1990, 1991 EWT Consulting, Portions Copyright (C) 1996-1997 by Andrey A. Chernov, Moscow, Russia."
_XMBDFED_INFO "Edited with xmbdfed 3.8."
_XFREE86_GLYPH_RANGES "32_126 149 154 156_158 163 179 191_255"
ENDPROPERTIES
CHARS 167
STARTCHAR space
ENCODING 32
SWIDTH 222 0
DWIDTH 4 0
BBX 0 0 0 0
BITMAP
ENDCHAR
STARTCHAR exclam
ENCODING 33
SWIDTH 222 0
DWIDTH 4 0
BBX 1 13 2 0
BITMAP
80
80
80
80
80
80
80
80
80
00
00
80
80
ENDCHAR
STARTCHAR quotedbl
ENCODING 34
SWIDTH 277 0
DWIDTH 5 0
BBX 3 5 1 8
BITMAP
A0
A0
A0
A0
A0
ENDCHAR
STARTCHAR numbersign
ENCODING 35
SWIDTH 611 0
DWIDTH 11 0
BBX 9 13 1 0
BITMAP
0900
0900
1200
1200
7F80
1200
2400
2400
FF00
2400
2400
4800
4800
ENDCHAR
STARTCHAR dollar
ENCODING 36
SWIDTH 444 0
DWIDTH 8 0
BBX 7 16 1 -2
BITMAP
10
10
7C
92
92
90
90
70
18
16
12
92
92
7C
10
10
ENDCHAR
STARTCHAR percent
ENCODING 37
SWIDTH 722 0
DWIDTH 13 0
BBX 12 13 1 0
BITMAP
3780
4880
8900
8900
8A00
9200
6460
0490
0910
0910
1110
1120
20C0
ENDCHAR
STARTCHAR ampersand
ENCODING 38
SWIDTH 666 0
DWIDTH 12 0
BBX 10 13 1 0
BITMAP
1C00
2200
2200
2200
3400
19C0
2880
4880
8500
8500
8200
8640
7980
ENDCHAR
STARTCHAR quotesingle
ENCODING 39
SWIDTH 166 0
DWIDTH 3 0
BBX 1 5 1 8
BITMAP
80
80
80
80
80
ENDCHAR
STARTCHAR parenleft
ENCODING 40
SWIDTH 333 0
DWIDTH 6 0
BBX 3 17 2 -4
BITMAP
20
40
40
40
80
80
80
80
80
80
80
80
80
40
40
40
20
ENDCHAR
STARTCHAR parenright
ENCODING 41
SWIDTH 333 0
DWIDTH 6 0
BBX 3 17 1 -4
BITMAP
80
40
40
40
20
20
20
20
20
20
20
20
20
40
40
40
80
ENDCHAR
STARTCHAR asterisk
ENCODING 42
SWIDTH 388 0
DWIDTH 7 0
BBX 5 6 1 7
BITMAP
20
A8
70
70
A8
20
ENDCHAR
STARTCHAR plus
ENCODING 43
SWIDTH 500 0
DWIDTH 9 0
BBX 7 9 1 0
BITMAP
10
10
10
10
FE
10
10
10
10
ENDCHAR
STARTCHAR comma
ENCODING 44
SWIDTH 222 0
DWIDTH 4 0
BBX 2 4 1 -2
BITMAP
40
40
40
80
ENDCHAR
STARTCHAR hyphen
ENCODING 45
SWIDTH 277 0
DWIDTH 5 0
BBX 4 1 1 5
BITMAP
F0
ENDCHAR
STARTCHAR period
ENCODING 46
SWIDTH 222 0
DWIDTH 4 0
BBX 1 2 2 0
BITMAP
80
80
ENDCHAR
STARTCHAR slash
ENCODING 47
SWIDTH 277 0
DWIDTH 5 0
BBX 5 14 0 -1
BITMAP
08
08
10
10
10
20
20
20
40
40
40
80
80
80
ENDCHAR
STARTCHAR zero
ENCODING 48
SWIDTH 444 0
DWIDTH 8 0
BBX 7 13 1 0
BITMAP
38
44
82
82
82
82
82
82
82
82
82
44
38
ENDCHAR
STARTCHAR one
ENCODING 49
SWIDTH 444 0
DWIDTH 8 0
BBX 5 13 2 0
BITMAP
20
60
A0
20
20
20
20
20
20
20
20
20
F8
ENDCHAR
STARTCHAR two
ENCODING 50
SWIDTH 444 0
DWIDTH 8 0
BBX 7 13 1 0
BITMAP
7C
82
82
02
02
02
04
08
10
20
22
42
FE
ENDCHAR
STARTCHAR three
ENCODING 51
SWIDTH 444 0
DWIDTH 8 0
BBX 7 13 1 0
BITMAP
7C
82
02
02
04
1C
04
02
02
02
02
84
78
ENDCHAR
STARTCHAR four
ENCODING 52
SWIDTH 444 0
DWIDTH 8 0
BBX 7 13 1 0
BITMAP
04
0C
14
14
24
24
44
44
84
FE
04
04
04
ENDCHAR
STARTCHAR five
ENCODING 53
SWIDTH 444 0
DWIDTH 8 0
BBX 6 13 1 0
BITMAP
FC
80
80
80
F0
88
04
04
04
04
04
88
70
ENDCHAR
STARTCHAR six
ENCODING 54
SWIDTH 444 0
DWIDTH 8 0
BBX 7 13 1 0
BITMAP
1C
20
40
80
B8
C4
82
82
82
82
82
44
38
ENDCHAR
STARTCHAR seven
ENCODING 55
SWIDTH 444 0
DWIDTH 8 0
BBX 6 13 1 0
BITMAP
FC
84
84
04
08
08
08
08
10
10
10
20
20
ENDCHAR
STARTCHAR eight
ENCODING 56
SWIDTH 444 0
DWIDTH 8 0
BBX 7 13 1 0
BITMAP
38
44
82
82
82
44
38
44
82
82
82
44
38
ENDCHAR
STARTCHAR nine
ENCODING 57
SWIDTH 444 0
DWIDTH 8 0
BBX 7 13 1 0
BITMAP
38
44
82
82
82
82
82
46
3A
02
04
08
70
ENDCHAR
STARTCHAR colon
ENCODING 58
SWIDTH 222 0
DWIDTH 4 0
BBX 1 9 2 0
BITMAP
80
80
00
00
00
00
00
80
80
ENDCHAR
STARTCHAR semicolon
ENCODING 59
SWIDTH 222 0
DWIDTH 4 0
BBX 2 11 1 -2
BITMAP
40
40
00
00
00
00
00
40
40
40
80
ENDCHAR
STARTCHAR less
ENCODING 60
SWIDTH 500 0
DWIDTH 9 0
BBX 7 9 1 0
BITMAP
02
0C
30
40
80
40
30
0C
02
ENDCHAR
STARTCHAR equal
ENCODING 61
SWIDTH 500 0
DWIDTH 9 0
BBX 7 4 1 3
BITMAP
FE
00
00
FE
ENDCHAR
STARTCHAR greater
ENCODING 62
SWIDTH 500 0
DWIDTH 9 0
BBX 7 9 1 0
BITMAP
80
60
18
04
02
04
18
60
80
ENDCHAR
STARTCHAR question
ENCODING 63
SWIDTH 388 0
DWIDTH 7 0
BBX 6 13 1 0
BITMAP
78
84
84
04
04
08
10
20
20
00
00
20
20
ENDCHAR
STARTCHAR at
ENCODING 64
SWIDTH 833 0
DWIDTH 15 0
BBX 14 16 1 -3
BITMAP
0780
1860
2018
4008
4344
84C4
8444
8844
8884
8888
8888
4770
4000
2000
1820
07C0
ENDCHAR
STARTCHAR A
ENCODING 65
SWIDTH 611 0
DWIDTH 11 0
BBX 11 13 0 0
BITMAP
0400
0400
0A00
0A00
1100
1100
1100
3F80
2080
2080
4040
4040
E0E0
ENDCHAR
STARTCHAR B
ENCODING 66
SWIDTH 555 0
DWIDTH 10 0
BBX 8 13 1 0
BITMAP
FC
42
41
41
41
42
7C
42
41
41
41
42
FC
ENDCHAR
STARTCHAR C
ENCODING 67
SWIDTH 611 0
DWIDTH 11 0
BBX 9 13 1 0
BITMAP
1E80
2180
4080
4080
8000
8000
8000
8000
8000
4000
4080
2100
1E00
ENDCHAR
STARTCHAR D
ENCODING 68
SWIDTH 666 0
DWIDTH 12 0
BBX 10 13 1 0
BITMAP
FE00
4100
4080
4080
4040
4040
4040
4040
4040
4080
4080
4100
FE00
ENDCHAR
STARTCHAR E
ENCODING 69
SWIDTH 611 0
DWIDTH 11 0
BBX 9 13 1 0
BITMAP
FF80
4080
4080
4000
4000
4200
7E00
4200
4000
4000
4080
4080
FF80
ENDCHAR
STARTCHAR F
ENCODING 70
SWIDTH 611 0
DWIDTH 11 0
BBX 9 13 1 0
BITMAP
FF80
4080
4080
4000
4000
4200
7E00
4200
4000
4000
4000
4000
F000
ENDCHAR
STARTCHAR G
ENCODING 71
SWIDTH 666 0
DWIDTH 12 0
BBX 10 13 1 0
BITMAP
1E80
2180
4080
4080
8000
8000
83C0
8080
8080
4080
4080
2100
1E00
ENDCHAR
STARTCHAR H
ENCODING 72
SWIDTH 666 0
DWIDTH 12 0
BBX 10 13 1 0
BITMAP
E1C0
4080
4080
4080
4080
4080
7F80
4080
4080
4080
4080
4080
E1C0
ENDCHAR
STARTCHAR I
ENCODING 73
SWIDTH 277 0
DWIDTH 5 0
BBX 3 13 1 0
BITMAP
E0
40
40
40
40
40
40
40
40
40
40
40
E0
ENDCHAR
STARTCHAR J
ENCODING 74
SWIDTH 444 0
DWIDTH 8 0
BBX 6 13 1 0
BITMAP
3C
08
08
08
08
08
08
08
08
08
88
88
70
ENDCHAR
STARTCHAR K
ENCODING 75
SWIDTH 611 0
DWIDTH 11 0
BBX 9 13 1 0
BITMAP
E380
4100
4200
4400
4400
4800
7800
4800
4400
4200
4200
4100
E380
ENDCHAR
STARTCHAR L
ENCODING 76
SWIDTH 555 0
DWIDTH 10 0
BBX 9 13 1 0
BITMAP
F000
4000
4000
4000
4000
4000
4000
4000
4000
4080
4080
4080
FF80
ENDCHAR
STARTCHAR M
ENCODING 77
SWIDTH 833 0
DWIDTH 15 0
BBX 13 13 1 0
BITMAP
C018
6030
6030
5050
5050
5050
4890
4890
4510
4510
4510
4210
E238
ENDCHAR
STARTCHAR N
ENCODING 78
SWIDTH 666 0
DWIDTH 12 0
BBX 10 13 1 0
BITMAP
E1C0
6080
5080
5080
4880
4880
4480
4480
4280
4280
4180
4180
E080
ENDCHAR
STARTCHAR O
ENCODING 79
SWIDTH 666 0
DWIDTH 12 0
BBX 10 13 1 0
BITMAP
1E00
2100
4080
4080
8040
8040
8040
8040
8040
4080
4080
2100
1E00
ENDCHAR
STARTCHAR P
ENCODING 80
SWIDTH 500 0
DWIDTH 9 0
BBX 8 13 1 0
BITMAP
FC
42
41
41
41
42
7C
40
40
40
40
40
E0
ENDCHAR
STARTCHAR Q
ENCODING 81
SWIDTH 666 0
DWIDTH 12 0
BBX 10 15 1 -2
BITMAP
1E00
2100
4080
4080
8040
8040
8040
8040
8040
4080
4080
2100
1E00
0600
01C0
ENDCHAR
STARTCHAR R
ENCODING 82
SWIDTH 611 0
DWIDTH 11 0
BBX 9 13 1 0
BITMAP
FC00
4200
4100
4100
4100
4200
7C00
4200
4200
4200
4100
4100
E180
ENDCHAR
STARTCHAR S
ENCODING 83
SWIDTH 500 0
DWIDTH 9 0
BBX 7 13 1 0
BITMAP
3A
46
82
80
80
60
18
04
02
02
82
C4
B8
ENDCHAR
STARTCHAR T
ENCODING 84
SWIDTH 611 0
DWIDTH 11 0
BBX 9 13 1 0
BITMAP
FF80
8880
8880
0800
0800
0800
0800
0800
0800
0800
0800
0800
3E00
ENDCHAR
STARTCHAR U
ENCODING 85
SWIDTH 666 0
DWIDTH 12 0
BBX 10 13 1 0
BITMAP
E1C0
4080
4080
4080
4080
4080
4080
4080
4080
4080
4080
2100
1E00
ENDCHAR
STARTCHAR V
ENCODING 86
SWIDTH 722 0
DWIDTH 13 0
BBX 11 13 1 0
BITMAP
E0E0
4040
4040
2080
2080
2080
1100
1100
1100
0A00
0A00
0400
0400
ENDCHAR
STARTCHAR W
ENCODING 87
SWIDTH 888 0
DWIDTH 16 0
BBX 14 13 1 0
BITMAP
E71C
4208
4208
4108
2110
2110
2310
14A0
14A0
14A0
0840
0840
0840
ENDCHAR
STARTCHAR X
ENCODING 88
SWIDTH 666 0
DWIDTH 12 0
BBX 10 13 1 0
BITMAP
E1C0
4080
2100
2100
1200
0C00
0C00
1200
1200
2100
4080
4080
E1C0
ENDCHAR
STARTCHAR Y
ENCODING 89
SWIDTH 722 0
DWIDTH 13 0
BBX 11 13 1 0
BITMAP
E0E0
4040
2080
1100
1100
0E00
0400
0400
0400
0400
0400
0400
1F00
ENDCHAR
STARTCHAR Z
ENCODING 90
SWIDTH 555 0
DWIDTH 10 0
BBX 8 13 1 0
BITMAP
FF
81
82
04
04
08
10
10
20
41
41
81
FF
ENDCHAR
STARTCHAR bracketleft
ENCODING 91
SWIDTH 277 0
DWIDTH 5 0
BBX 3 17 1 -4
BITMAP
E0
80
80
80
80
80
80
80
80
80
80
80
80
80
80
80
E0
ENDCHAR
STARTCHAR backslash
ENCODING 92
SWIDTH 277 0
DWIDTH 5 0
BBX 5 15 0 -1
BITMAP
80
80
80
40
40
40
20
20
20
10
10
10
08
08
08
ENDCHAR
STARTCHAR bracketright
ENCODING 93
SWIDTH 277 0
DWIDTH 5 0
BBX 3 17 1 -4
BITMAP
E0
20
20
20
20
20
20
20
20
20
20
20
20
20
20
20
E0
ENDCHAR
STARTCHAR asciicircum
ENCODING 94
SWIDTH 444 0
DWIDTH 8 0
BBX 7 4 1 9
BITMAP
10
28
44
82
ENDCHAR
STARTCHAR underscore
ENCODING 95
SWIDTH 444 0
DWIDTH 8 0
BBX 8 1 0 -2
BITMAP
FF
ENDCHAR
STARTCHAR grave
ENCODING 96
SWIDTH 388 0
DWIDTH 7 0
BBX 3 3 2 10
BITMAP
80
40
20
ENDCHAR
STARTCHAR a
ENCODING 97
SWIDTH 388 0
DWIDTH 7 0
BBX 6 9 1 0
BITMAP
70
88
08
38
48
88
88
98
6C
ENDCHAR
STARTCHAR b
ENCODING 98
SWIDTH 444 0
DWIDTH 8 0
BBX 7 14 1 0
BITMAP
40
C0
40
40
40
58
64
42
42
42
42
42
64
18
ENDCHAR
STARTCHAR c
ENCODING 99
SWIDTH 388 0
DWIDTH 7 0
BBX 6 9 1 0
BITMAP
38
44
84
80
80
80
80
44
38
ENDCHAR
STARTCHAR d
ENCODING 100
SWIDTH 444 0
DWIDTH 8 0
BBX 7 14 1 0
BITMAP
04
0C
04
04
04
34
4C
84
84
84
84
84
4C
36
ENDCHAR
STARTCHAR e
ENCODING 101
SWIDTH 388 0
DWIDTH 7 0
BBX 6 9 1 0
BITMAP
30
48
84
84
FC
80
80
44
38
ENDCHAR
STARTCHAR f
ENCODING 102
SWIDTH 277 0
DWIDTH 5 0
BBX 4 13 1 0
BITMAP
30
50
40
40
E0
40
40
40
40
40
40
40
E0
ENDCHAR
STARTCHAR g
ENCODING 103
SWIDTH 500 0
DWIDTH 9 0
BBX 8 13 1 -4
BITMAP
39
46
44
44
44
44
38
40
7C
82
82
82
7C
ENDCHAR
STARTCHAR h
ENCODING 104
SWIDTH 500 0
DWIDTH 9 0
BBX 8 14 1 0
BITMAP
40
C0
40
40
40
5C
62
42
42
42
42
42
42
E7
ENDCHAR
STARTCHAR i
ENCODING 105
SWIDTH 222 0
DWIDTH 4 0
BBX 3 13 1 0
BITMAP
40
40
00
00
C0
40
40
40
40
40
40
40
E0
ENDCHAR
STARTCHAR j
ENCODING 106
SWIDTH 222 0
DWIDTH 4 0
BBX 3 17 1 -4
BITMAP
20
20
00
00
60
20
20
20
20
20
20
20
20
20
20
A0
C0
ENDCHAR
STARTCHAR k
ENCODING 107
SWIDTH 444 0
DWIDTH 8 0
BBX 7 14 1 0
BITMAP
40
C0
40
40
40
4E
44
48
50
70
48
48
44
EE
ENDCHAR
STARTCHAR l
ENCODING 108
SWIDTH 222 0
DWIDTH 4 0
BBX 3 14 1 0
BITMAP
40
C0
40
40
40
40
40
40
40
40
40
40
40
E0
ENDCHAR
STARTCHAR m
ENCODING 109
SWIDTH 666 0
DWIDTH 12 0
BBX 11 9 1 0
BITMAP
D980
6640
4440
4440
4440
4440
4440
4440
EEE0
ENDCHAR
STARTCHAR n
ENCODING 110
SWIDTH 500 0
DWIDTH 9 0
BBX 8 9 1 0
BITMAP
DC
62
42
42
42
42
42
42
E7
ENDCHAR
STARTCHAR o
ENCODING 111
SWIDTH 444 0
DWIDTH 8 0
BBX 7 9 1 0
BITMAP
38
44
82
82
82
82
82
44
38
ENDCHAR
STARTCHAR p
ENCODING 112
SWIDTH 444 0
DWIDTH 8 0
BBX 7 13 1 -4
BITMAP
D8
64
42
42
42
42
42
64
58
40
40
40
E0
ENDCHAR
STARTCHAR q
ENCODING 113
SWIDTH 444 0
DWIDTH 8 0
BBX 7 13 1 -4
BITMAP
34
4C
84
84
84
84
84
4C
34
04
04
04
0E
ENDCHAR
STARTCHAR r
ENCODING 114
SWIDTH 333 0
DWIDTH 6 0
BBX 5 9 1 0
BITMAP
D8
68
40
40
40
40
40
40
E0
ENDCHAR
STARTCHAR s
ENCODING 115
SWIDTH 333 0
DWIDTH 6 0
BBX 5 9 1 0
BITMAP
68
98
88
80
70
08
88
C8
B0
ENDCHAR
STARTCHAR t
ENCODING 116
SWIDTH 333 0
DWIDTH 6 0
BBX 5 11 1 0
BITMAP
40
40
E0
40
40
40
40
40
40
48
30
ENDCHAR
STARTCHAR u
ENCODING 117
SWIDTH 500 0
DWIDTH 9 0
BBX 8 9 1 0
BITMAP
C6
42
42
42
42
42
42
46
3B
ENDCHAR
STARTCHAR v
ENCODING 118
SWIDTH 444 0
DWIDTH 8 0
BBX 7 9 1 0
BITMAP
EE
44
44
44
28
28
28
10
10
ENDCHAR
STARTCHAR w
ENCODING 119
SWIDTH 666 0
DWIDTH 12 0
BBX 11 9 1 0
BITMAP
EEE0
4440
4440
4440
2A80
2A80
2A80
1100
1100
ENDCHAR
STARTCHAR x
ENCODING 120
SWIDTH 444 0
DWIDTH 8 0
BBX 7 9 1 0
BITMAP
EE
44
28
28
10
28
28
44
EE
ENDCHAR
STARTCHAR y
ENCODING 121
SWIDTH 444 0
DWIDTH 8 0
BBX 7 13 1 -4
BITMAP
EE
44
44
44
28
28
28
10
10
10
20
A0
C0
ENDCHAR
STARTCHAR z
ENCODING 122
SWIDTH 388 0
DWIDTH 7 0
BBX 6 9 1 0
BITMAP
FC
88
08
10
10
20
44
44
FC
ENDCHAR
STARTCHAR braceleft
ENCODING 123
SWIDTH 277 0
DWIDTH 5 0
BBX 4 17 1 -4
BITMAP
30
40
40
40
40
40
40
40
80
40
40
40
40
40
40
40
30
ENDCHAR
STARTCHAR bar
ENCODING 124
SWIDTH 222 0
DWIDTH 4 0
BBX 1 18 2 -4
BITMAP
80
80
80
80
80
80
80
80
80
80
80
80
80
80
80
80
80
80
ENDCHAR
STARTCHAR braceright
ENCODING 125
SWIDTH 277 0
DWIDTH 5 0
BBX 4 17 0 -4
BITMAP
C0
20
20
20
20
20
20
20
10
20
20
20
20
20
20
20
C0
ENDCHAR
STARTCHAR asciitilde
ENCODING 126
SWIDTH 388 0
DWIDTH 7 0
BBX 7 3 0 10
BITMAP
62
92
8C
ENDCHAR
STARTCHAR bullet
ENCODING 149
SWIDTH 277 0
DWIDTH 5 0
BBX 4 5 1 2
BITMAP
60
F0
F0
F0
60
ENDCHAR
STARTCHAR space
ENCODING 154
SWIDTH 222 0
DWIDTH 4 0
BBX 0 0 0 0
BITMAP
ENDCHAR
STARTCHAR degree
ENCODING 156
SWIDTH 277 0
DWIDTH 5 0
BBX 4 5 1 8
BITMAP
60
90
90
90
60
ENDCHAR
STARTCHAR twosuperior
ENCODING 157
SWIDTH 277 0
DWIDTH 5 0
BBX 4 7 1 6
BITMAP
60
90
10
20
40
80
F0
ENDCHAR
STARTCHAR periodcentered
ENCODING 158
SWIDTH 222 0
DWIDTH 4 0
BBX 1 2 2 3
BITMAP
80
80
ENDCHAR
STARTCHAR afii10071
ENCODING 163
SWIDTH 333 0
DWIDTH 6 0
BBX 6 11 1 0
BITMAP
48
00
30
48
84
84
FC
80
80
44
38
ENDCHAR
STARTCHAR afii10023
ENCODING 179
SWIDTH 444 0
DWIDTH 8 0
BBX 8 15 1 0
BITMAP
42
00
FF
41
40
40
40
44
7C
44
40
40
40
41
FF
ENDCHAR
STARTCHAR copyright
ENCODING 191
SWIDTH 611 0
DWIDTH 11 0
BBX 11 13 0 0
BITMAP
0E00
3180
4040
4F40
9920
9020
9020
9020
9920
4E40
4040
3180
0E00
ENDCHAR
STARTCHAR afii10096
ENCODING 192
SWIDTH 666 0
DWIDTH 12 0
BBX 11 9 1 0
BITMAP
E380
4440
4820
4820
7820
4820
4820
4440
E380
ENDCHAR
STARTCHAR afii10065
ENCODING 193
SWIDTH 388 0
DWIDTH 7 0
BBX 6 9 1 0
BITMAP
70
88
08
38
48
88
88
98
6C
ENDCHAR
STARTCHAR afii10066
ENCODING 194
SWIDTH 388 0
DWIDTH 7 0
BBX 6 12 1 0
BITMAP
04
78
80
80
F8
44
84
84
84
84
84
78
ENDCHAR
STARTCHAR afii10088
ENCODING 195
SWIDTH 500 0
DWIDTH 9 0
BBX 8 11 1 -2
BITMAP
E7
42
42
42
42
42
42
42
FF
01
01
ENDCHAR
STARTCHAR afii10069
ENCODING 196
SWIDTH 500 0
DWIDTH 9 0
BBX 8 11 1 -2
BITMAP
7F
22
22
22
22
22
22
42
FF
81
81
ENDCHAR
STARTCHAR afii10070
ENCODING 197
SWIDTH 388 0
DWIDTH 7 0
BBX 6 9 1 0
BITMAP
30
48
84
84
FC
80
80
44
38
ENDCHAR
STARTCHAR afii10086
ENCODING 198
SWIDTH 444 0
DWIDTH 8 0
BBX 7 15 1 -4
BITMAP
38
10
7C
92
92
92
92
92
92
92
7C
10
10
10
38
ENDCHAR
STARTCHAR afii10068
ENCODING 199
SWIDTH 388 0
DWIDTH 7 0
BBX 6 9 1 0
BITMAP
FC
44
40
40
40
40
40
40
E0
ENDCHAR
STARTCHAR afii10087
ENCODING 200
SWIDTH 444 0
DWIDTH 8 0
BBX 7 9 1 0
BITMAP
EE
44
28
28
10
28
28
44
EE
ENDCHAR
STARTCHAR afii10074
ENCODING 201
SWIDTH 500 0
DWIDTH 9 0
BBX 8 9 1 0
BITMAP
E7
42
42
46
4A
52
62
42
E7
ENDCHAR
STARTCHAR afii10075
ENCODING 202
SWIDTH 500 0
DWIDTH 9 0
BBX 8 12 1 0
BITMAP
24
18
00
E7
42
42
46
4A
52
62
42
E7
ENDCHAR
STARTCHAR afii10076
ENCODING 203
SWIDTH 444 0
DWIDTH 8 0
BBX 7 9 1 0
BITMAP
E6
44
48
50
60
50
48
44
E6
ENDCHAR
STARTCHAR afii10077
ENCODING 204
SWIDTH 500 0
DWIDTH 9 0
BBX 8 9 1 0
BITMAP
7F
22
22
22
22
22
22
22
C7
ENDCHAR
STARTCHAR afii10078
ENCODING 205
SWIDTH 666 0
DWIDTH 12 0
BBX 11 9 1 0
BITMAP
E0E0
60C0
5140
5140
4A40
4A40
4440
4440
E0E0
ENDCHAR
STARTCHAR afii10079
ENCODING 206
SWIDTH 500 0
DWIDTH 9 0
BBX 8 9 1 0
BITMAP
E7
42
42
42
7E
42
42
42
E7
ENDCHAR
STARTCHAR afii10080
ENCODING 207
SWIDTH 444 0
DWIDTH 8 0
BBX 7 9 1 0
BITMAP
38
44
82
82
82
82
82
44
38
ENDCHAR
STARTCHAR afii10081
ENCODING 208
SWIDTH 500 0
DWIDTH 9 0
BBX 8 9 1 0
BITMAP
FF
42
42
42
42
42
42
42
E7
ENDCHAR
STARTCHAR afii10097
ENCODING 209
SWIDTH 555 0
DWIDTH 10 0
BBX 9 9 1 0
BITMAP
1F80
2100
2100
2100
1F00
1100
2100
2100
C380
ENDCHAR
STARTCHAR afii10082
ENCODING 210
SWIDTH 444 0
DWIDTH 8 0
BBX 7 13 1 -4
BITMAP
F8
44
42
42
42
42
42
44
78
40
40
40
E0
ENDCHAR
STARTCHAR afii10083
ENCODING 211
SWIDTH 388 0
DWIDTH 7 0
BBX 6 9 1 0
BITMAP
38
44
84
80
80
80
80
44
38
ENDCHAR
STARTCHAR afii10084
ENCODING 212
SWIDTH 444 0
DWIDTH 8 0
BBX 7 9 1 0
BITMAP
FE
92
10
10
10
10
10
10
38
ENDCHAR
STARTCHAR afii10085
ENCODING 213
SWIDTH 555 0
DWIDTH 10 0
BBX 9 13 1 -4
BITMAP
E380
4100
4100
2200
2200
1400
1400
0800
0800
0800
1000
9000
6000
ENDCHAR
STARTCHAR afii10072
ENCODING 214
SWIDTH 666 0
DWIDTH 12 0
BBX 11 9 1 0
BITMAP
EEE0
4440
2480
1500
0E00
1500
2480
4440
EEE0
ENDCHAR
STARTCHAR afii10067
ENCODING 215
SWIDTH 388 0
DWIDTH 7 0
BBX 6 9 1 0
BITMAP
F8
44
44
44
78
44
44
44
F8
ENDCHAR
STARTCHAR afii10094
ENCODING 216
SWIDTH 444 0
DWIDTH 8 0
BBX 7 9 1 0
BITMAP
E0
40
40
7C
42
42
42
42
FC
ENDCHAR
STARTCHAR afii10093
ENCODING 217
SWIDTH 666 0
DWIDTH 12 0
BBX 11 9 1 0
BITMAP
E0E0
4040
4040
7C40
4240
4240
4240
4240
FCE0
ENDCHAR
STARTCHAR afii10073
ENCODING 218
SWIDTH 388 0
DWIDTH 7 0
BBX 6 9 1 0
BITMAP
78
44
04
04
38
04
04
84
F8
ENDCHAR
STARTCHAR afii10090
ENCODING 219
SWIDTH 777 0
DWIDTH 14 0
BBX 13 9 1 0
BITMAP
E738
4210
4210
4210
4210
4210
4210
4210
FFF8
ENDCHAR
STARTCHAR afii10095
ENCODING 220
SWIDTH 388 0
DWIDTH 7 0
BBX 6 9 1 0
BITMAP
70
88
04
04
3C
04
04
88
70
ENDCHAR
STARTCHAR afii10091
ENCODING 221
SWIDTH 833 0
DWIDTH 15 0
BBX 14 11 1 -2
BITMAP
E738
4210
4210
4210
4210
4210
4210
4210
FFFC
0004
0004
ENDCHAR
STARTCHAR afii10089
ENCODING 222
SWIDTH 500 0
DWIDTH 9 0
BBX 8 9 1 0
BITMAP
E7
42
42
42
42
3E
02
02
07
ENDCHAR
STARTCHAR afii10092
ENCODING 223
SWIDTH 555 0
DWIDTH 10 0
BBX 9 9 1 0
BITMAP
F800
9000
9000
1F00
1080
1080
1080
1080
3F00
ENDCHAR
STARTCHAR afii10048
ENCODING 224
SWIDTH 888 0
DWIDTH 16 0
BBX 14 13 1 0
BITMAP
E1E0
4210
4408
4408
4804
4804
7804
4804
4804
4408
4408
4210
E1E0
ENDCHAR
STARTCHAR afii10017
ENCODING 225
SWIDTH 611 0
DWIDTH 11 0
BBX 11 13 0 0
BITMAP
0400
0400
0A00
0A00
1100
1100
1100
3F80
2080
2080
4040
4040
E0E0
ENDCHAR
STARTCHAR afii10018
ENCODING 226
SWIDTH 555 0
DWIDTH 10 0
BBX 8 13 1 0
BITMAP
FF
41
40
40
40
40
7C
42
41
41
41
42
FC
ENDCHAR
STARTCHAR afii10040
ENCODING 227
SWIDTH 722 0
DWIDTH 13 0
BBX 11 15 1 -2
BITMAP
E0E0
4040
4040
4040
4040
4040
4040
4040
4040
4040
4040
4040
FFE0
0020
0020
ENDCHAR
STARTCHAR afii10021
ENCODING 228
SWIDTH 611 0
DWIDTH 11 0
BBX 9 15 1 -2
BITMAP
7F80
2100
2100
2100
2100
2100
2100
2100
2100
2100
2100
4100
FF80
8080
8080
ENDCHAR
STARTCHAR afii10022
ENCODING 229
SWIDTH 555 0
DWIDTH 10 0
BBX 8 13 1 0
BITMAP
FF
41
40
40
40
44
7C
44
40
40
40
41
FF
ENDCHAR
STARTCHAR afii10038
ENCODING 230
SWIDTH 722 0
DWIDTH 13 0
BBX 11 15 1 0
BITMAP
0E00
0400
3F80
4440
8420
8420
8420
8420
8420
8420
8420
4440
3F80
0400
0E00
ENDCHAR
STARTCHAR afii10020
ENCODING 231
SWIDTH 555 0
DWIDTH 10 0
BBX 8 13 1 0
BITMAP
FF
41
40
40
40
40
40
40
40
40
40
40
E0
ENDCHAR
STARTCHAR afii10039
ENCODING 232
SWIDTH 722 0
DWIDTH 13 0
BBX 11 13 1 0
BITMAP
E0E0
4040
4040
2080
1100
0A00
0400
0A00
1100
2080
4040
4040
E0E0
ENDCHAR
STARTCHAR afii10026
ENCODING 233
SWIDTH 666 0
DWIDTH 12 0
BBX 10 13 1 0
BITMAP
E1C0
4080
4080
4080
4080
4180
4280
4480
4880
5080
6080
4080
E1C0
ENDCHAR
STARTCHAR afii10027
ENCODING 234
SWIDTH 666 0
DWIDTH 12 0
BBX 10 16 1 0
BITMAP
1200
0C00
0000
E1C0
4080
4080
4080
4080
4180
4280
4480
4880
5080
6080
4080
E1C0
ENDCHAR
STARTCHAR afii10028
ENCODING 235
SWIDTH 611 0
DWIDTH 11 0
BBX 9 13 1 0
BITMAP
E380
4100
4200
4400
4800
5000
6000
5000
4800
4400
4200
4100
E380
ENDCHAR
STARTCHAR afii10029
ENCODING 236
SWIDTH 611 0
DWIDTH 11 0
BBX 9 13 1 0
BITMAP
7F80
2100
2100
2100
2100
2100
2100
2100
2100
2100
2100
2100
C380
ENDCHAR
STARTCHAR afii10030
ENCODING 237
SWIDTH 833 0
DWIDTH 15 0
BBX 13 13 1 0
BITMAP
C018
6030
6030
5050
5050
5050
4890
4890
4510
4510
4510
4210
E238
ENDCHAR
STARTCHAR afii10031
ENCODING 238
SWIDTH 666 0
DWIDTH 12 0
BBX 10 13 1 0
BITMAP
E1C0
4080
4080
4080
4080
4080
7F80
4080
4080
4080
4080
4080
E1C0
ENDCHAR
STARTCHAR afii10032
ENCODING 239
SWIDTH 666 0
DWIDTH 12 0
BBX 10 13 1 0
BITMAP
1E00
2100
4080
4080
8040
8040
8040
8040
8040
4080
4080
2100
1E00
ENDCHAR
STARTCHAR afii10033
ENCODING 240
SWIDTH 666 0
DWIDTH 12 0
BBX 10 13 1 0
BITMAP
FFC0
4080
4080
4080
4080
4080
4080
4080
4080
4080
4080
4080
E1C0
ENDCHAR
STARTCHAR afii10049
ENCODING 241
SWIDTH 611 0
DWIDTH 11 0
BBX 9 13 1 0
BITMAP
1F80
2100
4100
4100
4100
2100
1F00
2100
2100
2100
4100
4100
C380
ENDCHAR
STARTCHAR afii10034
ENCODING 242
SWIDTH 555 0
DWIDTH 10 0
BBX 8 13 1 0
BITMAP
FC
42
41
41
41
42
7C
40
40
40
40
40
E0
ENDCHAR
STARTCHAR afii10035
ENCODING 243
SWIDTH 611 0
DWIDTH 11 0
BBX 9 13 1 0
BITMAP
1E80
2180
4080
4080
8000
8000
8000
8000
8000
4000
4080
2100
1E00
ENDCHAR
STARTCHAR afii10036
ENCODING 244
SWIDTH 611 0
DWIDTH 11 0
BBX 9 13 1 0
BITMAP
FF80
8880
8880
0800
0800
0800
0800
0800
0800
0800
0800
0800
3E00
ENDCHAR
STARTCHAR afii10037
ENCODING 245
SWIDTH 611 0
DWIDTH 11 0
BBX 10 13 1 0
BITMAP
E1C0
4080
4080
2100
2100
1200
0E00
0400
0400
0800
0800
9000
6000
ENDCHAR
STARTCHAR afii10024
ENCODING 246
SWIDTH 833 0
DWIDTH 15 0
BBX 15 13 0 0
BITMAP
E38E
4104
2108
1110
0920
0540
0BA0
1110
2108
4104
4104
4104
E38E
ENDCHAR
STARTCHAR afii10019
ENCODING 247
SWIDTH 555 0
DWIDTH 10 0
BBX 8 13 1 0
BITMAP
FC
42
41
41
41
42
7C
42
41
41
41
42
FC
ENDCHAR
STARTCHAR afii10046
ENCODING 248
SWIDTH 500 0
DWIDTH 9 0
BBX 7 13 1 0
BITMAP
E0
40
40
40
40
7C
42
42
42
42
42
42
FC
ENDCHAR
STARTCHAR afii10045
ENCODING 249
SWIDTH 666 0
DWIDTH 12 0
BBX 10 13 1 0
BITMAP
E1C0
4080
4080
4080
4080
7C80
4280
4280
4280
4280
4280
4280
FDC0
ENDCHAR
STARTCHAR afii10025
ENCODING 250
SWIDTH 500 0
DWIDTH 9 0
BBX 7 13 1 0
BITMAP
FC
82
02
02
04
38
04
02
02
02
02
82
FC
ENDCHAR
STARTCHAR afii10042
ENCODING 251
SWIDTH 833 0
DWIDTH 15 0
BBX 13 13 1 0
BITMAP
E738
4210
4210
4210
4210
4210
4210
4210
4210
4210
4210
4210
FFF8
ENDCHAR
STARTCHAR afii10047
ENCODING 252
SWIDTH 611 0
DWIDTH 11 0
BBX 9 13 1 0
BITMAP
BC00
C200
8100
8100
0080
1080
1F80
1080
0080
0100
8100
4200
3C00
ENDCHAR
STARTCHAR afii10043
ENCODING 253
SWIDTH 888 0
DWIDTH 16 0
BBX 14 15 1 -2
BITMAP
E738
4210
4210
4210
4210
4210
4210
4210
4210
4210
4210
4210
FFFC
0004
0004
ENDCHAR
STARTCHAR afii10041
ENCODING 254
SWIDTH 666 0
DWIDTH 12 0
BBX 10 13 1 0
BITMAP
E1C0
4080
4080
4080
4080
4080
3F80
0080
0080
0080
0080
0080
01C0
ENDCHAR
STARTCHAR afii10044
ENCODING 255
SWIDTH 611 0
DWIDTH 11 0
BBX 9 13 1 0
BITMAP
F800
9000
9000
1000
1000
1F00
1080
1080
1080
1080
1080
1080
3F00
ENDCHAR
ENDFONT
